<?xml version="1.0" encoding="UTF-8"?>
<svg xmlns="http://www.w3.org/2000/svg" xmlns:xlink="http://www.w3.org/1999/xlink" width="474.511pt" height="182.681pt" viewBox="0 0 474.511 182.681">
<path fill-rule="nonzero" fill="rgb(100%, 100%, 100%)" fill-opacity="1" d="M 219.839844 82.269531 C 219.363281 83.316406 218.722656 84.226562 217.914062 85.003906 C 217.109375 85.78125 216.171875 86.398438 215.109375 86.851562 C 214.042969 87.308594 212.914062 87.539062 211.722656 87.539062 C 210.53125 87.539062 209.449219 87.308594 208.472656 86.851562 C 207.5 86.398438 206.664062 85.78125 205.972656 85.003906 C 205.277344 84.226562 204.738281 83.316406 204.351562 82.269531 C 203.964844 81.226562 203.773438 80.109375 203.773438 78.917969 C 203.773438 77.722656 203.964844 76.605469 204.351562 75.5625 C 204.738281 74.519531 205.277344 73.605469 205.972656 72.828125 C 206.664062 72.050781 207.5 71.433594 208.472656 70.976562 C 209.449219 70.523438 210.53125 70.292969 211.722656 70.292969 C 212.871094 70.292969 213.976562 70.527344 215.035156 70.988281 C 216.09375 71.453125 217.03125 72.078125 217.851562 72.871094 C 218.671875 73.664062 219.328125 74.582031 219.816406 75.625 C 220.308594 76.667969 220.554688 77.765625 220.554688 78.917969 C 220.554688 80.109375 220.316406 81.226562 219.839844 82.269531 M 222.203125 69.066406 C 222.140625 68.875 222.027344 68.78125 221.855469 68.78125 C 221.308594 68.78125 220.972656 69.210938 220.835938 70.074219 C 220.703125 70.9375 220.636719 72.285156 220.636719 74.121094 C 220.441406 73.605469 220.082031 73.027344 219.566406 72.398438 C 219.046875 71.765625 218.398438 71.183594 217.621094 70.644531 C 216.84375 70.101562 215.953125 69.652344 214.949219 69.285156 C 213.949219 68.921875 212.871094 68.738281 211.722656 68.738281 C 210.320312 68.738281 209.023438 69.003906 207.832031 69.539062 C 206.640625 70.070312 205.609375 70.800781 204.742188 71.726562 C 203.871094 72.648438 203.191406 73.730469 202.703125 74.964844 C 202.210938 76.195312 201.964844 77.515625 201.964844 78.917969 C 201.964844 80.316406 202.210938 81.636719 202.703125 82.867188 C 203.191406 84.101562 203.871094 85.179688 204.742188 86.105469 C 205.609375 87.03125 206.640625 87.761719 207.832031 88.292969 C 209.023438 88.828125 210.320312 89.09375 211.722656 89.09375 C 212.746094 89.09375 213.742188 88.945312 214.707031 88.652344 C 215.675781 88.355469 216.554688 87.960938 217.347656 87.460938 C 218.140625 86.964844 218.820312 86.390625 219.398438 85.738281 C 219.972656 85.085938 220.386719 84.410156 220.636719 83.710938 C 220.722656 85.671875 220.65625 87.355469 220.4375 88.757812 C 220.222656 90.15625 219.8125 91.3125 219.21875 92.226562 C 218.621094 93.136719 217.816406 93.816406 216.800781 94.265625 C 215.785156 94.714844 214.527344 94.964844 213.027344 95.023438 C 212.550781 95.050781 212.066406 95.019531 211.574219 94.925781 C 211.085938 94.835938 210.574219 94.714844 210.039062 94.558594 C 209.730469 94.476562 209.4375 94.496094 209.15625 94.621094 C 208.878906 94.75 208.738281 94.996094 208.738281 95.359375 C 208.738281 95.640625 208.910156 95.875 209.261719 96.0625 C 209.613281 96.253906 210.03125 96.402344 210.511719 96.515625 C 210.996094 96.625 211.5 96.707031 212.015625 96.757812 C 212.535156 96.804688 212.957031 96.828125 213.277344 96.828125 C 214.582031 96.828125 215.789062 96.59375 216.894531 96.125 C 218.003906 95.65625 218.957031 95.003906 219.753906 94.171875 C 220.554688 93.335938 221.179688 92.347656 221.636719 91.207031 C 222.09375 90.0625 222.320312 88.8125 222.320312 87.453125 L 222.320312 71.34375 C 222.320312 71.136719 222.328125 70.882812 222.339844 70.589844 C 222.355469 70.292969 222.351562 70.015625 222.332031 69.75 C 222.308594 69.480469 222.265625 69.253906 222.203125 69.066406 "/>
<path fill-rule="nonzero" fill="rgb(100%, 100%, 100%)" fill-opacity="1" d="M 252.714844 68.992188 C 252.410156 68.894531 252.078125 68.824219 251.714844 68.792969 C 251.351562 68.757812 250.980469 68.742188 250.609375 68.75 C 250.238281 68.757812 249.886719 68.777344 249.558594 68.8125 C 249.230469 68.847656 248.960938 68.894531 248.75 68.949219 C 247.894531 69.160156 247.113281 69.476562 246.40625 69.894531 C 245.699219 70.316406 245.078125 70.773438 244.542969 71.261719 C 244.011719 71.753906 243.574219 72.238281 243.230469 72.722656 C 242.886719 73.207031 242.664062 73.617188 242.566406 73.953125 L 242.566406 71.222656 C 242.566406 70.703125 242.527344 70.28125 242.453125 69.957031 C 242.375 69.636719 242.273438 69.382812 242.148438 69.191406 C 242.019531 69.003906 241.882812 68.871094 241.738281 68.800781 C 241.589844 68.730469 241.445312 68.695312 241.304688 68.695312 C 241.027344 68.695312 240.886719 68.835938 240.886719 69.117188 L 240.886719 88.210938 C 240.886719 88.449219 240.960938 88.648438 241.117188 88.808594 C 241.269531 88.96875 241.476562 89.050781 241.726562 89.050781 C 241.964844 89.050781 242.164062 88.96875 242.328125 88.808594 C 242.488281 88.648438 242.566406 88.449219 242.566406 88.210938 L 242.566406 77.820312 C 242.695312 76.9375 242.941406 76.113281 243.3125 75.339844 C 243.683594 74.570312 244.140625 73.875 244.679688 73.257812 C 245.21875 72.644531 245.828125 72.113281 246.5 71.671875 C 247.171875 71.230469 247.878906 70.898438 248.625 70.671875 C 249.421875 70.433594 250.179688 70.335938 250.894531 70.378906 C 251.203125 70.394531 251.449219 70.425781 251.628906 70.472656 C 251.8125 70.523438 251.964844 70.574219 252.09375 70.632812 C 252.21875 70.6875 252.332031 70.738281 252.429688 70.777344 C 252.527344 70.820312 252.644531 70.839844 252.789062 70.839844 C 253.023438 70.839844 253.238281 70.765625 253.429688 70.609375 C 253.617188 70.457031 253.710938 70.253906 253.710938 70 C 253.710938 69.75 253.621094 69.542969 253.4375 69.382812 C 253.257812 69.21875 253.015625 69.089844 252.714844 68.992188 "/>
<path fill-rule="nonzero" fill="rgb(100%, 100%, 100%)" fill-opacity="1" d="M 285.398438 82.269531 C 284.964844 83.316406 284.367188 84.226562 283.613281 85.003906 C 282.855469 85.78125 281.964844 86.398438 280.941406 86.851562 C 279.917969 87.308594 278.816406 87.539062 277.640625 87.539062 C 276.460938 87.539062 275.363281 87.308594 274.339844 86.851562 C 273.316406 86.398438 272.425781 85.78125 271.667969 85.003906 C 270.910156 84.226562 270.316406 83.316406 269.882812 82.269531 C 269.445312 81.226562 269.230469 80.109375 269.230469 78.917969 C 269.230469 77.722656 269.445312 76.605469 269.882812 75.5625 C 270.316406 74.519531 270.910156 73.605469 271.667969 72.828125 C 272.425781 72.050781 273.316406 71.433594 274.339844 70.976562 C 275.363281 70.523438 276.460938 70.292969 277.640625 70.292969 C 278.816406 70.292969 279.917969 70.523438 280.941406 70.976562 C 281.964844 71.433594 282.855469 72.050781 283.613281 72.828125 C 284.367188 73.605469 284.964844 74.519531 285.398438 75.5625 C 285.832031 76.605469 286.050781 77.722656 286.050781 78.917969 C 286.050781 80.109375 285.832031 81.226562 285.398438 82.269531 M 287.398438 68.78125 C 287.257812 68.78125 287.113281 68.816406 286.964844 68.886719 C 286.820312 68.957031 286.683594 69.085938 286.554688 69.273438 C 286.429688 69.464844 286.328125 69.71875 286.25 70.042969 C 286.171875 70.363281 286.136719 70.785156 286.136719 71.304688 L 286.136719 73.851562 C 285.71875 73.070312 285.21875 72.359375 284.621094 71.726562 C 283.753906 70.800781 282.722656 70.070312 281.53125 69.539062 C 280.339844 69.003906 279.042969 68.738281 277.640625 68.738281 C 276.238281 68.738281 274.921875 69.003906 273.6875 69.539062 C 272.453125 70.070312 271.375 70.800781 270.449219 71.726562 C 269.523438 72.648438 268.796875 73.730469 268.261719 74.964844 C 267.730469 76.195312 267.464844 77.515625 267.464844 78.917969 C 267.464844 80.316406 267.730469 81.636719 268.261719 82.867188 C 268.796875 84.101562 269.523438 85.179688 270.449219 86.105469 C 271.375 87.03125 272.453125 87.761719 273.6875 88.292969 C 274.921875 88.828125 276.238281 89.09375 277.640625 89.09375 C 279.042969 89.09375 280.339844 88.828125 281.53125 88.292969 C 282.722656 87.761719 283.753906 87.03125 284.621094 86.105469 C 285.21875 85.472656 285.71875 84.761719 286.136719 83.980469 L 286.136719 88.144531 C 286.136719 88.453125 286.210938 88.691406 286.367188 88.851562 C 286.519531 89.011719 286.738281 89.09375 287.019531 89.09375 C 287.226562 89.09375 287.414062 89.011719 287.574219 88.851562 C 287.734375 88.691406 287.816406 88.453125 287.816406 88.144531 L 287.816406 69.203125 C 287.816406 68.921875 287.675781 68.78125 287.398438 68.78125 "/>
<path fill-rule="nonzero" fill="rgb(100%, 100%, 100%)" fill-opacity="1" d="M 320.144531 70.976562 C 321.132812 71.433594 321.984375 72.050781 322.699219 72.828125 C 323.414062 73.605469 323.976562 74.519531 324.382812 75.5625 C 324.789062 76.605469 324.992188 77.722656 324.992188 78.917969 L 324.992188 88.167969 C 324.992188 88.421875 325.070312 88.628906 325.222656 88.800781 C 325.378906 88.96875 325.582031 89.050781 325.832031 89.050781 C 325.988281 89.050781 326.121094 89.019531 326.234375 88.957031 C 326.34375 88.894531 326.433594 88.816406 326.496094 88.722656 C 326.558594 88.632812 326.601562 88.535156 326.632812 88.429688 C 326.660156 88.324219 326.675781 88.238281 326.675781 88.167969 L 326.675781 78.875 C 326.675781 77.472656 326.429688 76.160156 325.9375 74.929688 C 325.445312 73.703125 324.765625 72.632812 323.898438 71.714844 C 323.027344 70.796875 322 70.070312 320.808594 69.539062 C 319.613281 69.003906 318.320312 68.738281 316.917969 68.738281 C 315.769531 68.738281 314.691406 68.921875 313.691406 69.285156 C 312.6875 69.652344 311.796875 70.101562 311.019531 70.640625 C 310.242188 71.183594 309.589844 71.765625 309.0625 72.398438 C 308.539062 73.027344 308.183594 73.605469 308.003906 74.121094 L 308.003906 71.222656 C 308.003906 70.703125 307.964844 70.28125 307.886719 69.960938 C 307.808594 69.636719 307.707031 69.382812 307.582031 69.191406 C 307.457031 69.003906 307.320312 68.871094 307.171875 68.800781 C 307.023438 68.730469 306.878906 68.695312 306.742188 68.695312 C 306.460938 68.695312 306.320312 68.835938 306.320312 69.117188 L 306.320312 88.210938 C 306.320312 88.449219 306.398438 88.648438 306.550781 88.808594 C 306.707031 88.96875 306.910156 89.050781 307.160156 89.050781 C 307.398438 89.050781 307.597656 88.96875 307.761719 88.808594 C 307.921875 88.648438 308.003906 88.449219 308.003906 88.210938 L 308.003906 79 C 308.003906 78.242188 308.113281 77.5 308.339844 76.769531 C 308.5625 76.042969 308.878906 75.355469 309.285156 74.710938 C 309.691406 74.066406 310.171875 73.472656 310.726562 72.933594 C 311.277344 72.394531 311.882812 71.925781 312.542969 71.535156 C 313.203125 71.144531 313.902344 70.839844 314.648438 70.621094 C 315.390625 70.402344 316.144531 70.292969 316.917969 70.292969 C 318.082031 70.292969 319.15625 70.523438 320.144531 70.976562 "/>
<path fill-rule="nonzero" fill="rgb(100%, 100%, 100%)" fill-opacity="1" d="M 361.914062 82.269531 C 361.480469 83.316406 360.882812 84.226562 360.128906 85.003906 C 359.371094 85.78125 358.480469 86.398438 357.457031 86.851562 C 356.433594 87.308594 355.332031 87.539062 354.15625 87.539062 C 352.980469 87.539062 351.878906 87.308594 350.855469 86.851562 C 349.832031 86.398438 348.941406 85.78125 348.183594 85.003906 C 347.425781 84.226562 346.832031 83.316406 346.398438 82.269531 C 345.960938 81.226562 345.746094 80.109375 345.746094 78.917969 C 345.746094 77.722656 345.960938 76.605469 346.398438 75.5625 C 346.832031 74.519531 347.425781 73.605469 348.183594 72.828125 C 348.941406 72.050781 349.832031 71.433594 350.855469 70.976562 C 351.878906 70.523438 352.980469 70.292969 354.15625 70.292969 C 355.332031 70.292969 356.433594 70.523438 357.457031 70.976562 C 358.480469 71.433594 359.371094 72.050781 360.128906 72.828125 C 360.882812 73.605469 361.480469 74.519531 361.914062 75.5625 C 362.347656 76.605469 362.566406 77.722656 362.566406 78.917969 C 362.566406 80.109375 362.347656 81.226562 361.914062 82.269531 M 363.914062 68.78125 C 363.773438 68.78125 363.628906 68.816406 363.480469 68.886719 C 363.335938 68.957031 363.195312 69.085938 363.070312 69.273438 C 362.945312 69.464844 362.84375 69.71875 362.765625 70.042969 C 362.691406 70.363281 362.652344 70.785156 362.652344 71.304688 L 362.652344 73.851562 C 362.234375 73.070312 361.734375 72.359375 361.136719 71.726562 C 360.265625 70.800781 359.238281 70.070312 358.046875 69.539062 C 356.855469 69.003906 355.558594 68.738281 354.15625 68.738281 C 352.753906 68.738281 351.4375 69.003906 350.203125 69.539062 C 348.96875 70.070312 347.890625 70.800781 346.964844 71.726562 C 346.039062 72.648438 345.308594 73.730469 344.777344 74.964844 C 344.246094 76.195312 343.976562 77.515625 343.976562 78.917969 C 343.976562 80.316406 344.246094 81.636719 344.777344 82.867188 C 345.308594 84.101562 346.039062 85.179688 346.964844 86.105469 C 347.890625 87.03125 348.96875 87.761719 350.203125 88.292969 C 351.4375 88.828125 352.753906 89.09375 354.15625 89.09375 C 355.558594 89.09375 356.855469 88.828125 358.046875 88.292969 C 359.238281 87.761719 360.265625 87.03125 361.136719 86.105469 C 361.734375 85.472656 362.234375 84.761719 362.652344 83.980469 L 362.652344 88.144531 C 362.652344 88.453125 362.726562 88.691406 362.882812 88.851562 C 363.035156 89.011719 363.253906 89.09375 363.535156 89.09375 C 363.742188 89.09375 363.929688 89.011719 364.089844 88.851562 C 364.25 88.691406 364.332031 88.453125 364.332031 88.144531 L 364.332031 69.203125 C 364.332031 68.921875 364.191406 68.78125 363.914062 68.78125 "/>
<path fill-rule="nonzero" fill="rgb(100%, 100%, 100%)" fill-opacity="1" d="M 399.582031 82.269531 C 399.140625 83.316406 398.535156 84.226562 397.761719 85.003906 C 396.992188 85.78125 396.09375 86.398438 395.0625 86.851562 C 394.03125 87.308594 392.929688 87.539062 391.75 87.539062 C 390.574219 87.539062 389.472656 87.308594 388.449219 86.851562 C 387.425781 86.398438 386.535156 85.78125 385.777344 85.003906 C 385.023438 84.226562 384.425781 83.316406 383.992188 82.269531 C 383.554688 81.226562 383.339844 80.109375 383.339844 78.917969 C 383.339844 77.722656 383.554688 76.605469 383.992188 75.5625 C 384.425781 74.519531 385.023438 73.605469 385.777344 72.828125 C 386.535156 72.050781 387.425781 71.433594 388.449219 70.976562 C 389.472656 70.523438 390.574219 70.292969 391.75 70.292969 C 392.929688 70.292969 394.03125 70.523438 395.0625 70.976562 C 396.09375 71.433594 396.992188 72.050781 397.761719 72.828125 C 398.535156 73.605469 399.140625 74.519531 399.582031 75.5625 C 400.023438 76.605469 400.246094 77.722656 400.246094 78.917969 C 400.246094 80.109375 400.023438 81.226562 399.582031 82.269531 M 401.085938 62.261719 C 400.847656 62.261719 400.648438 62.34375 400.488281 62.503906 C 400.324219 62.664062 400.246094 62.867188 400.246094 63.105469 L 400.246094 73.851562 C 399.828125 73.074219 399.328125 72.359375 398.730469 71.726562 C 397.863281 70.800781 396.832031 70.070312 395.640625 69.539062 C 394.449219 69.003906 393.152344 68.738281 391.75 68.738281 C 390.347656 68.738281 389.03125 69.003906 387.796875 69.539062 C 386.5625 70.070312 385.484375 70.800781 384.558594 71.726562 C 383.632812 72.648438 382.90625 73.730469 382.375 74.964844 C 381.839844 76.195312 381.574219 77.515625 381.574219 78.917969 C 381.574219 80.316406 381.839844 81.636719 382.375 82.867188 C 382.90625 84.101562 383.632812 85.179688 384.558594 86.105469 C 385.484375 87.03125 386.5625 87.761719 387.796875 88.292969 C 389.03125 88.828125 390.347656 89.09375 391.75 89.09375 C 393.152344 89.09375 394.449219 88.828125 395.640625 88.292969 C 396.832031 87.761719 397.863281 87.03125 398.730469 86.105469 C 399.328125 85.472656 399.828125 84.761719 400.246094 83.980469 L 400.246094 86.570312 C 400.246094 87.089844 400.28125 87.507812 400.359375 87.832031 C 400.4375 88.152344 400.539062 88.410156 400.664062 88.597656 C 400.792969 88.789062 400.929688 88.917969 401.074219 88.988281 C 401.222656 89.058594 401.367188 89.09375 401.507812 89.09375 C 401.789062 89.09375 401.925781 88.953125 401.925781 88.671875 L 401.925781 63.105469 C 401.925781 62.867188 401.851562 62.664062 401.695312 62.503906 C 401.542969 62.34375 401.339844 62.261719 401.085938 62.261719 "/>
<path fill-rule="nonzero" fill="rgb(100%, 100%, 100%)" fill-opacity="1" d="M 437.167969 82.269531 C 436.734375 83.316406 436.136719 84.226562 435.378906 85.003906 C 434.625 85.78125 433.734375 86.398438 432.710938 86.851562 C 431.6875 87.308594 430.585938 87.539062 429.410156 87.539062 C 428.230469 87.539062 427.132812 87.308594 426.109375 86.851562 C 425.085938 86.398438 424.195312 85.78125 423.4375 85.003906 C 422.679688 84.226562 422.085938 83.316406 421.652344 82.269531 C 421.214844 81.226562 421 80.109375 421 78.917969 C 421 77.722656 421.214844 76.605469 421.652344 75.5625 C 422.085938 74.519531 422.679688 73.605469 423.4375 72.828125 C 424.195312 72.050781 425.085938 71.433594 426.109375 70.976562 C 427.132812 70.523438 428.230469 70.292969 429.410156 70.292969 C 430.585938 70.292969 431.6875 70.523438 432.710938 70.976562 C 433.734375 71.433594 434.625 72.050781 435.378906 72.828125 C 436.136719 73.605469 436.734375 74.519531 437.167969 75.5625 C 437.601562 76.605469 437.820312 77.722656 437.820312 78.917969 C 437.820312 80.109375 437.601562 81.226562 437.167969 82.269531 M 439.164062 68.78125 C 439.023438 68.78125 438.882812 68.816406 438.734375 68.886719 C 438.589844 68.957031 438.449219 69.085938 438.324219 69.273438 C 438.199219 69.464844 438.097656 69.71875 438.019531 70.042969 C 437.941406 70.363281 437.902344 70.785156 437.902344 71.304688 L 437.902344 73.851562 C 437.484375 73.070312 436.988281 72.359375 436.390625 71.726562 C 435.519531 70.800781 434.488281 70.070312 433.300781 69.539062 C 432.105469 69.003906 430.808594 68.738281 429.410156 68.738281 C 428.007812 68.738281 426.691406 69.003906 425.457031 69.539062 C 424.222656 70.070312 423.144531 70.800781 422.21875 71.726562 C 421.292969 72.648438 420.5625 73.730469 420.03125 74.964844 C 419.5 76.195312 419.230469 77.515625 419.230469 78.917969 C 419.230469 80.316406 419.5 81.636719 420.03125 82.867188 C 420.5625 84.101562 421.292969 85.179688 422.21875 86.105469 C 423.144531 87.03125 424.222656 87.761719 425.457031 88.292969 C 426.691406 88.828125 428.007812 89.09375 429.410156 89.09375 C 430.808594 89.09375 432.105469 88.828125 433.300781 88.292969 C 434.488281 87.761719 435.519531 87.03125 436.390625 86.105469 C 436.988281 85.472656 437.484375 84.761719 437.902344 83.980469 L 437.902344 88.144531 C 437.902344 88.453125 437.980469 88.691406 438.136719 88.851562 C 438.289062 89.011719 438.507812 89.09375 438.789062 89.09375 C 438.996094 89.09375 439.183594 89.011719 439.34375 88.851562 C 439.503906 88.691406 439.585938 88.453125 439.585938 88.144531 L 439.585938 69.203125 C 439.585938 68.921875 439.445312 68.78125 439.164062 68.78125 "/>
<path fill-rule="nonzero" fill="rgb(100%, 100%, 100%)" fill-opacity="1" d="M 217.339844 125.5 C 216.421875 124.960938 215.433594 124.484375 214.371094 124.066406 C 213.3125 123.652344 212.324219 123.253906 211.40625 122.871094 C 210.484375 122.488281 209.722656 122.097656 209.117188 121.695312 C 208.507812 121.292969 208.207031 120.835938 208.207031 120.328125 C 208.207031 119.734375 208.558594 119.304688 209.265625 119.046875 C 209.972656 118.785156 210.925781 118.722656 212.125 118.863281 C 212.691406 118.933594 213.203125 119.074219 213.664062 119.277344 C 214.121094 119.484375 214.546875 119.703125 214.933594 119.945312 C 215.324219 120.1875 215.683594 120.417969 216.015625 120.644531 C 216.347656 120.871094 216.667969 121.039062 216.980469 121.152344 C 217.277344 121.238281 217.597656 121.25 217.945312 121.183594 C 218.289062 121.121094 218.601562 120.992188 218.875 120.792969 C 219.152344 120.59375 219.371094 120.335938 219.535156 120.019531 C 219.695312 119.703125 219.734375 119.339844 219.648438 118.929688 C 219.410156 118.222656 219.023438 117.605469 218.496094 117.074219 C 217.964844 116.542969 217.328125 116.105469 216.585938 115.757812 C 215.847656 115.414062 215.027344 115.15625 214.128906 114.984375 C 213.230469 114.816406 212.308594 114.730469 211.363281 114.730469 C 210.019531 114.730469 208.832031 114.898438 207.792969 115.230469 C 206.753906 115.5625 205.878906 115.984375 205.175781 116.5 C 204.46875 117.015625 203.933594 117.597656 203.574219 118.25 C 203.214844 118.898438 203.035156 119.542969 203.035156 120.179688 C 203.035156 121.027344 203.210938 121.785156 203.5625 122.445312 C 203.914062 123.109375 204.382812 123.699219 204.960938 124.214844 C 205.539062 124.730469 206.199219 125.1875 206.933594 125.582031 C 207.667969 125.980469 208.425781 126.335938 209.199219 126.652344 C 209.976562 126.972656 210.734375 127.257812 211.46875 127.511719 C 212.203125 127.765625 212.859375 128.015625 213.441406 128.253906 C 214.019531 128.496094 214.484375 128.734375 214.839844 128.976562 C 215.191406 129.214844 215.367188 129.484375 215.367188 129.777344 C 215.367188 130.105469 215.257812 130.386719 215.03125 130.628906 C 214.804688 130.867188 214.492188 131.0625 214.097656 131.210938 C 213.703125 131.359375 213.246094 131.464844 212.730469 131.527344 C 212.214844 131.59375 211.667969 131.601562 211.085938 131.558594 C 210.042969 131.558594 209.171875 131.398438 208.480469 131.074219 C 207.789062 130.746094 207.203125 130.382812 206.722656 129.980469 C 206.242188 129.578125 205.832031 129.199219 205.492188 128.835938 C 205.152344 128.476562 204.820312 128.253906 204.496094 128.167969 C 204.171875 128.070312 203.851562 128.058594 203.542969 128.136719 C 203.230469 128.214844 202.953125 128.351562 202.703125 128.550781 C 202.457031 128.75 202.265625 128.992188 202.132812 129.28125 C 202 129.570312 201.945312 129.886719 201.972656 130.226562 C 202.085938 131.117188 202.449219 131.90625 203.066406 132.597656 C 203.679688 133.292969 204.429688 133.878906 205.3125 134.359375 C 206.195312 134.839844 207.152344 135.203125 208.183594 135.449219 C 209.214844 135.695312 210.210938 135.820312 211.171875 135.820312 C 212.34375 135.820312 213.492188 135.714844 214.617188 135.503906 C 215.738281 135.289062 216.738281 134.949219 217.617188 134.472656 C 218.492188 134 219.199219 133.390625 219.734375 132.640625 C 220.273438 131.894531 220.539062 130.980469 220.539062 129.90625 C 220.539062 128.933594 220.234375 128.089844 219.628906 127.375 C 219.019531 126.660156 218.257812 126.035156 217.339844 125.5 "/>
<path fill-rule="nonzero" fill="rgb(100%, 100%, 100%)" fill-opacity="1" d="M 247.925781 127.542969 C 247.640625 128.230469 247.257812 128.828125 246.769531 129.335938 C 246.28125 129.84375 245.710938 130.246094 245.050781 130.542969 C 244.394531 130.839844 243.6875 130.988281 242.921875 130.988281 C 242.160156 130.988281 241.445312 130.839844 240.78125 130.542969 C 240.117188 130.246094 239.542969 129.84375 239.054688 129.335938 C 238.566406 128.828125 238.183594 128.230469 237.910156 127.542969 C 237.632812 126.859375 237.496094 126.128906 237.496094 125.351562 C 237.496094 124.585938 237.632812 123.863281 237.910156 123.179688 C 238.183594 122.492188 238.566406 121.894531 239.054688 121.386719 C 239.542969 120.878906 240.117188 120.476562 240.78125 120.179688 C 241.445312 119.882812 242.160156 119.734375 242.921875 119.734375 C 243.6875 119.734375 244.394531 119.882812 245.050781 120.179688 C 245.710938 120.476562 246.28125 120.878906 246.769531 121.386719 C 247.257812 121.894531 247.640625 122.492188 247.925781 123.179688 C 248.207031 123.863281 248.347656 124.585938 248.347656 125.351562 C 248.347656 126.128906 248.207031 126.859375 247.925781 127.542969 M 250.308594 117.972656 C 249.355469 117.027344 248.246094 116.28125 246.980469 115.726562 C 245.71875 115.175781 244.363281 114.902344 242.921875 114.902344 C 241.480469 114.902344 240.128906 115.175781 238.863281 115.726562 C 237.597656 116.28125 236.488281 117.027344 235.535156 117.972656 C 234.582031 118.921875 233.832031 120.027344 233.277344 121.292969 C 232.726562 122.554688 232.453125 123.910156 232.453125 125.351562 C 232.453125 126.789062 232.726562 128.148438 233.277344 129.417969 C 233.832031 130.691406 234.582031 131.800781 235.535156 132.746094 C 236.488281 133.695312 237.597656 134.441406 238.863281 134.996094 C 240.128906 135.542969 241.480469 135.820312 242.921875 135.820312 C 244.363281 135.820312 245.71875 135.542969 246.980469 134.996094 C 248.246094 134.441406 249.355469 133.695312 250.308594 132.746094 C 251.261719 131.800781 252.015625 130.691406 252.566406 129.417969 C 253.117188 128.148438 253.394531 126.789062 253.394531 125.351562 C 253.394531 123.910156 253.117188 122.554688 252.566406 121.292969 C 252.015625 120.027344 251.261719 118.921875 250.308594 117.972656 "/>
<path fill-rule="nonzero" fill="rgb(100%, 100%, 100%)" fill-opacity="1" d="M 282.75 129.015625 C 282.378906 128.863281 281.996094 128.804688 281.59375 128.847656 C 281.191406 128.890625 280.828125 128.996094 280.503906 129.164062 C 280.007812 129.617188 279.4375 129.976562 278.796875 130.246094 C 278.152344 130.515625 277.492188 130.683594 276.8125 130.753906 C 275.9375 130.867188 275.109375 130.820312 274.332031 130.605469 C 273.554688 130.394531 272.871094 130.050781 272.277344 129.578125 C 271.683594 129.105469 271.214844 128.511719 270.867188 127.796875 C 270.523438 127.085938 270.347656 126.277344 270.347656 125.371094 C 270.347656 124.4375 270.53125 123.613281 270.898438 122.902344 C 271.265625 122.1875 271.753906 121.597656 272.363281 121.132812 C 272.96875 120.667969 273.660156 120.335938 274.441406 120.136719 C 275.214844 119.9375 276.007812 119.886719 276.8125 119.988281 C 277.660156 120.144531 278.453125 120.394531 279.1875 120.738281 C 279.921875 121.085938 280.648438 121.4375 281.371094 121.789062 C 281.722656 121.859375 282.0625 121.851562 282.386719 121.757812 C 282.714844 121.667969 282.996094 121.519531 283.234375 121.3125 C 283.476562 121.109375 283.667969 120.855469 283.808594 120.550781 C 283.949219 120.246094 284.019531 119.925781 284.019531 119.585938 C 284.019531 118.976562 283.75 118.382812 283.214844 117.804688 C 282.804688 117.339844 282.316406 116.929688 281.75 116.574219 C 281.1875 116.222656 280.574219 115.921875 279.917969 115.675781 C 279.261719 115.425781 278.582031 115.238281 277.875 115.113281 C 277.167969 114.984375 276.460938 114.921875 275.753906 114.921875 C 274.3125 114.921875 272.960938 115.199219 271.695312 115.75 C 270.429688 116.300781 269.324219 117.050781 268.378906 117.996094 C 267.429688 118.941406 266.683594 120.046875 266.132812 121.3125 C 265.578125 122.578125 265.304688 123.929688 265.304688 125.371094 C 265.304688 126.8125 265.578125 128.167969 266.132812 129.441406 C 266.683594 130.710938 267.429688 131.820312 268.378906 132.769531 C 269.324219 133.714844 270.429688 134.464844 271.695312 135.015625 C 272.960938 135.566406 274.3125 135.839844 275.753906 135.839844 C 276.882812 135.839844 277.953125 135.699219 278.964844 135.417969 C 279.976562 135.136719 280.859375 134.773438 281.613281 134.328125 C 282.371094 133.882812 282.96875 133.375 283.40625 132.8125 C 283.84375 132.246094 284.0625 131.679688 284.0625 131.117188 C 284.0625 130.621094 283.941406 130.1875 283.703125 129.8125 C 283.460938 129.4375 283.144531 129.171875 282.75 129.015625 "/>
<path fill-rule="nonzero" fill="rgb(100%, 100%, 100%)" fill-opacity="1" d="M 301.316406 115.601562 C 301.089844 115.375 300.824219 115.199219 300.519531 115.070312 C 300.214844 114.941406 299.894531 114.878906 299.558594 114.878906 C 299.203125 114.878906 298.875 114.941406 298.570312 115.070312 C 298.265625 115.199219 298.003906 115.375 297.785156 115.601562 C 297.566406 115.828125 297.394531 116.089844 297.269531 116.394531 C 297.140625 116.699219 297.074219 117.019531 297.074219 117.359375 L 297.074219 133.320312 C 297.074219 133.671875 297.140625 134 297.269531 134.304688 C 297.394531 134.609375 297.566406 134.875 297.785156 135.101562 C 298.003906 135.324219 298.265625 135.503906 298.570312 135.628906 C 298.875 135.757812 299.203125 135.820312 299.558594 135.820312 C 299.894531 135.820312 300.214844 135.757812 300.519531 135.628906 C 300.824219 135.503906 301.089844 135.324219 301.316406 135.101562 C 301.542969 134.875 301.722656 134.609375 301.855469 134.304688 C 301.992188 134 302.058594 133.671875 302.058594 133.320312 L 302.058594 117.359375 C 302.058594 117.019531 301.992188 116.699219 301.855469 116.394531 C 301.722656 116.089844 301.542969 115.828125 301.316406 115.601562 "/>
<path fill-rule="nonzero" fill="rgb(100%, 100%, 100%)" fill-opacity="1" d="M 301.390625 107.578125 C 301.140625 107.34375 300.855469 107.160156 300.53125 107.027344 C 300.207031 106.894531 299.859375 106.824219 299.492188 106.824219 C 299.109375 106.824219 298.757812 106.894531 298.433594 107.027344 C 298.105469 107.160156 297.824219 107.34375 297.585938 107.578125 C 297.34375 107.8125 297.15625 108.089844 297.023438 108.414062 C 296.890625 108.742188 296.820312 109.085938 296.820312 109.453125 C 296.820312 109.835938 296.890625 110.183594 297.023438 110.503906 C 297.15625 110.820312 297.34375 111.097656 297.585938 111.328125 C 297.824219 111.5625 298.105469 111.746094 298.433594 111.878906 C 298.757812 112.015625 299.109375 112.082031 299.492188 112.082031 C 299.859375 112.082031 300.207031 112.015625 300.53125 111.878906 C 300.855469 111.746094 301.140625 111.5625 301.390625 111.328125 C 301.636719 111.097656 301.832031 110.820312 301.972656 110.503906 C 302.113281 110.183594 302.183594 109.835938 302.183594 109.453125 C 302.183594 109.085938 302.113281 108.742188 301.972656 108.414062 C 301.832031 108.089844 301.636719 107.8125 301.390625 107.578125 "/>
<path fill-rule="nonzero" fill="rgb(100%, 100%, 100%)" fill-opacity="1" d="M 330.585938 127.566406 C 330.304688 128.25 329.917969 128.847656 329.429688 129.355469 C 328.941406 129.863281 328.371094 130.269531 327.714844 130.5625 C 327.054688 130.859375 326.347656 131.011719 325.585938 131.011719 C 324.820312 131.011719 324.109375 130.859375 323.445312 130.5625 C 322.777344 130.269531 322.203125 129.863281 321.714844 129.355469 C 321.226562 128.847656 320.847656 128.25 320.570312 127.566406 C 320.296875 126.878906 320.160156 126.148438 320.160156 125.371094 C 320.160156 124.609375 320.296875 123.882812 320.570312 123.199219 C 320.847656 122.515625 321.226562 121.914062 321.714844 121.40625 C 322.203125 120.898438 322.777344 120.496094 323.445312 120.199219 C 324.109375 119.902344 324.820312 119.753906 325.585938 119.753906 C 326.347656 119.753906 327.054688 119.902344 327.714844 120.199219 C 328.371094 120.496094 328.941406 120.898438 329.429688 121.40625 C 329.917969 121.914062 330.304688 122.515625 330.585938 123.199219 C 330.867188 123.882812 331.007812 124.609375 331.007812 125.371094 C 331.007812 126.148438 330.867188 126.878906 330.585938 127.566406 M 334.695312 114.921875 C 334.175781 114.921875 333.71875 115.109375 333.332031 115.484375 C 332.941406 115.859375 332.664062 116.492188 332.492188 117.378906 L 332.304688 117.953125 C 331.523438 117.027344 330.570312 116.292969 329.453125 115.75 C 328.3125 115.199219 327.027344 114.921875 325.585938 114.921875 C 324.144531 114.921875 322.789062 115.199219 321.523438 115.75 C 320.261719 116.300781 319.152344 117.050781 318.195312 117.996094 C 317.242188 118.941406 316.492188 120.046875 315.941406 121.3125 C 315.390625 122.578125 315.113281 123.929688 315.113281 125.371094 C 315.113281 126.8125 315.390625 128.167969 315.941406 129.441406 C 316.492188 130.710938 317.242188 131.824219 318.195312 132.769531 C 319.152344 133.714844 320.261719 134.464844 321.523438 135.015625 C 322.789062 135.566406 324.144531 135.84375 325.585938 135.84375 C 327.027344 135.84375 328.3125 135.566406 329.453125 135.015625 C 330.515625 134.5 331.421875 133.804688 332.179688 132.945312 L 332.492188 134.1875 C 332.648438 134.683594 332.894531 135.082031 333.226562 135.386719 C 333.558594 135.691406 333.984375 135.84375 334.507812 135.84375 C 335 135.84375 335.382812 135.703125 335.652344 135.429688 C 335.921875 135.152344 336.054688 134.753906 336.054688 134.230469 L 336.054688 116.277344 C 336.054688 115.375 335.601562 114.921875 334.695312 114.921875 "/>
<path fill-rule="nonzero" fill="rgb(100%, 100%, 100%)" fill-opacity="1" d="M 354.601562 109.15625 C 354.375 108.929688 354.109375 108.753906 353.804688 108.628906 C 353.5 108.5 353.179688 108.4375 352.839844 108.4375 C 352.488281 108.4375 352.160156 108.5 351.855469 108.628906 C 351.550781 108.753906 351.285156 108.929688 351.058594 109.15625 C 350.832031 109.382812 350.65625 109.648438 350.53125 109.953125 C 350.402344 110.257812 350.339844 110.578125 350.339844 110.917969 L 350.339844 133.320312 C 350.339844 133.671875 350.402344 134 350.53125 134.304688 C 350.65625 134.609375 350.832031 134.875 351.058594 135.101562 C 351.285156 135.324219 351.550781 135.503906 351.855469 135.628906 C 352.160156 135.757812 352.488281 135.820312 352.839844 135.820312 C 353.179688 135.820312 353.5 135.757812 353.804688 135.628906 C 354.109375 135.503906 354.375 135.324219 354.601562 135.101562 C 354.824219 134.875 355.007812 134.609375 355.140625 134.304688 C 355.273438 134 355.34375 133.671875 355.34375 133.320312 L 355.34375 110.917969 C 355.34375 110.578125 355.273438 110.257812 355.140625 109.953125 C 355.007812 109.648438 354.824219 109.382812 354.601562 109.15625 "/>
<path fill-rule="nonzero" fill="rgb(100%, 100%, 100%)" fill-opacity="1" d="M 102.992188 100.390625 C 97.792969 100.390625 93.574219 104.609375 93.574219 109.808594 C 93.574219 115.007812 97.792969 119.226562 102.992188 119.226562 L 111.824219 119.226562 C 111.277344 119.679688 110.730469 120.148438 110.1875 120.589844 C 107.882812 122.464844 105.453125 124.125 102.890625 125.570312 C 100.324219 127.015625 97.578125 128.152344 94.65625 128.972656 C 91.730469 129.796875 88.492188 130.207031 84.941406 130.207031 C 79.417969 130.207031 74.226562 129.136719 69.359375 127 C 64.492188 124.863281 60.238281 121.957031 56.589844 118.273438 C 52.941406 114.59375 50.0625 110.300781 47.960938 105.402344 C 45.855469 100.507812 44.804688 95.296875 44.804688 89.773438 C 44.804688 84.25 45.855469 79.042969 47.960938 74.144531 C 50.0625 69.246094 52.925781 64.941406 56.539062 61.226562 C 60.15625 57.511719 64.414062 54.585938 69.3125 52.449219 C 74.207031 50.3125 79.417969 49.242188 84.941406 49.242188 C 90.921875 49.242188 96.28125 50.425781 101.015625 52.792969 C 105.75 55.160156 110.089844 58.351562 114.03125 62.359375 C 115.480469 63.542969 116.941406 64.378906 118.421875 64.875 C 119.898438 65.367188 121.3125 65.582031 122.660156 65.515625 C 124.007812 65.449219 125.277344 65.152344 126.457031 64.628906 C 127.640625 64.101562 128.691406 63.414062 129.613281 62.558594 C 130.925781 61.4375 131.898438 60.125 132.523438 58.613281 C 133.148438 57.097656 133.425781 55.621094 133.363281 54.175781 C 133.230469 50.953125 132.078125 48.160156 129.910156 45.792969 C 126.621094 42.242188 123.285156 39.21875 119.898438 36.71875 C 116.515625 34.222656 112.996094 32.199219 109.347656 30.65625 C 105.699219 29.109375 101.855469 27.992188 97.808594 27.300781 C 93.765625 26.609375 89.476562 26.265625 84.941406 26.265625 C 79.089844 26.265625 73.46875 27.023438 68.078125 28.535156 C 62.6875 30.046875 57.640625 32.183594 52.941406 34.941406 C 48.242188 37.707031 43.964844 41.007812 40.121094 44.855469 C 36.277344 48.703125 32.972656 52.976562 30.210938 57.675781 C 27.449219 62.375 25.3125 67.421875 23.800781 72.8125 C 22.289062 78.203125 21.53125 83.792969 21.53125 89.578125 C 21.53125 98.320312 23.191406 106.539062 26.511719 114.230469 C 29.832031 121.921875 34.367188 128.644531 40.121094 134.398438 C 45.875 140.152344 52.597656 144.6875 60.289062 148.003906 C 67.980469 151.324219 76.195312 152.984375 84.941406 152.984375 C 90.132812 152.984375 94.867188 152.574219 99.140625 151.753906 C 103.414062 150.933594 107.40625 149.667969 111.125 147.957031 C 114.835938 146.246094 118.355469 144.0625 121.675781 141.398438 C 123.566406 139.882812 125.453125 138.179688 127.335938 136.332031 L 127.335938 143.566406 C 127.335938 148.769531 131.550781 152.984375 136.753906 152.984375 C 141.652344 152.984375 145.675781 149.242188 146.125 144.457031 L 146.125 100.390625 Z M 102.992188 100.390625 "/>
<path fill-rule="nonzero" fill="rgb(100%, 100%, 100%)" fill-opacity="1" d="M 157.65625 88.796875 L 169.25 88.796875 L 169.25 77.214844 L 157.65625 77.214844 Z M 157.65625 88.796875 "/>
<path fill-rule="nonzero" fill="rgb(100%, 100%, 100%)" fill-opacity="1" d="M 146.082031 77.214844 L 134.488281 77.214844 L 134.488281 88.8125 L 146.082031 88.8125 Z M 146.082031 77.214844 "/>
<path fill-rule="nonzero" fill="rgb(100%, 100%, 100%)" fill-opacity="1" d="M 157.65625 111.972656 L 169.25 111.972656 L 169.25 100.375 L 157.65625 100.375 Z M 157.65625 111.972656 "/>
</svg>
